<svg xmlns="http://www.w3.org/2000/svg" width="620" height="340" viewBox="0 0 620 340">
  <defs>
    <radialGradient id="stromaCut" cx="42%" cy="36%" r="70%">
      <stop offset="0%" stop-color="#367a4a"/>
      <stop offset="70%" stop-color="#245638"/>
      <stop offset="100%" stop-color="#173d26"/>
    </radialGradient>
    <linearGradient id="envelope" x1="0" y1="0" x2="0" y2="1">
      <stop offset="0%" stop-color="#8fe0a0"/>
      <stop offset="100%" stop-color="#4e9a5e"/>
    </linearGradient>
    <linearGradient id="granumBig" x1="0" y1="0" x2="0" y2="1">
      <stop offset="0%" stop-color="#68c97e"/>
      <stop offset="100%" stop-color="#277a3c"/>
    </linearGradient>
    <radialGradient id="innerShade" cx="50%" cy="46%" r="58%">
      <stop offset="70%" stop-color="#000000" stop-opacity="0"/>
      <stop offset="100%" stop-color="#0b2416" stop-opacity="0.45"/>
    </radialGradient>
  </defs>
  <ellipse cx="310" cy="170" rx="300" ry="158" fill="url(#envelope)"/>
  <ellipse cx="310" cy="170" rx="292" ry="150" fill="url(#stromaCut)"/>
  <ellipse cx="310" cy="170" rx="284" ry="142" fill="url(#innerShade)"/>
  <ellipse cx="310" cy="170" rx="284" ry="142" fill="none" stroke="#a6ecb4" stroke-width="1.5" opacity="0.55"/>
  <!-- top sheen -->
  <path d="M120 78 C220 40 420 40 520 82 C420 66 220 66 120 78 Z" fill="#ffffff" opacity="0.12"/>
  <!-- lamellae -->
  <g stroke="#57b06e" stroke-width="4" fill="none" opacity="0.7" stroke-linecap="round">
    <path d="M150 152 C210 122 250 122 300 150"/>
    <path d="M300 190 C360 220 420 210 470 180"/>
    <path d="M190 202 C250 232 300 222 340 202"/>
  </g>
  <!-- grana stacks with depth -->
  <g stroke="#1f5a2c" stroke-width="1">
    <g transform="translate(150 152)"><ellipse cx="0" cy="-15" rx="30" ry="6.5" fill="url(#granumBig)"/><ellipse cx="0" cy="-4" rx="30" ry="6.5" fill="url(#granumBig)"/><ellipse cx="0" cy="7" rx="30" ry="6.5" fill="url(#granumBig)"/><ellipse cx="0" cy="18" rx="30" ry="6.5" fill="url(#granumBig)"/></g>
    <g transform="translate(300 150)"><ellipse cx="0" cy="-11" rx="30" ry="6.5" fill="url(#granumBig)"/><ellipse cx="0" cy="0" rx="30" ry="6.5" fill="url(#granumBig)"/><ellipse cx="0" cy="11" rx="30" ry="6.5" fill="url(#granumBig)"/></g>
    <g transform="translate(340 202)"><ellipse cx="0" cy="-11" rx="28" ry="6" fill="url(#granumBig)"/><ellipse cx="0" cy="0" rx="28" ry="6" fill="url(#granumBig)"/><ellipse cx="0" cy="11" rx="28" ry="6" fill="url(#granumBig)"/></g>
    <g transform="translate(470 176)"><ellipse cx="0" cy="-15" rx="30" ry="6.5" fill="url(#granumBig)"/><ellipse cx="0" cy="-4" rx="30" ry="6.5" fill="url(#granumBig)"/><ellipse cx="0" cy="7" rx="30" ry="6.5" fill="url(#granumBig)"/><ellipse cx="0" cy="18" rx="30" ry="6.5" fill="url(#granumBig)"/></g>
    <g transform="translate(215 236)"><ellipse cx="0" cy="-9" rx="26" ry="5.5" fill="url(#granumBig)"/><ellipse cx="0" cy="1" rx="26" ry="5.5" fill="url(#granumBig)"/><ellipse cx="0" cy="11" rx="26" ry="5.5" fill="url(#granumBig)"/></g>
  </g>
</svg>
