<svg xmlns="http://www.w3.org/2000/svg" width="130" height="130" viewBox="0 0 130 130">
  <defs>
    <linearGradient id="hexFill" x1="0.2" y1="0" x2="0.8" y2="1">
      <stop offset="0%" stop-color="#ffe9a3"/>
      <stop offset="50%" stop-color="#f2c14e"/>
      <stop offset="100%" stop-color="#d29a2a"/>
    </linearGradient>
    <radialGradient id="hexGlow" cx="50%" cy="42%" r="55%">
      <stop offset="0%" stop-color="#fff3cf" stop-opacity="0.6"/>
      <stop offset="100%" stop-color="#fff3cf" stop-opacity="0"/>
    </radialGradient>
  </defs>
  <circle cx="65" cy="62" r="58" fill="url(#hexGlow)"/>
  <polygon points="65,16 110,42 110,88 65,114 20,88 20,42" fill="url(#hexFill)" stroke="#a9781c" stroke-width="3"/>
  <polygon points="65,32 95,50 95,80 65,98 35,80 35,50" fill="none" stroke="#fff6df" stroke-width="1.5" opacity="0.6"/>
  <path d="M30 40 C44 28 86 28 100 40" fill="none" stroke="#fff" stroke-width="2.5" opacity="0.4" stroke-linecap="round"/>
  <g stroke="#a9781c" stroke-width="3" stroke-linecap="round">
    <line x1="65" y1="16" x2="65" y2="4"/><line x1="110" y1="42" x2="122" y2="34"/><line x1="110" y1="88" x2="122" y2="96"/>
    <line x1="20" y1="42" x2="8" y2="34"/><line x1="20" y1="88" x2="8" y2="96"/><line x1="65" y1="114" x2="65" y2="126"/>
  </g>
</svg>
