<svg xmlns="http://www.w3.org/2000/svg" width="340" height="220" viewBox="0 0 340 220">
  <defs>
    <linearGradient id="leafBody" x1="0.1" y1="0.1" x2="0.9" y2="0.9">
      <stop offset="0%" stop-color="#7ad98f"/>
      <stop offset="45%" stop-color="#43a35a"/>
      <stop offset="100%" stop-color="#1f6b34"/>
    </linearGradient>
    <linearGradient id="leafShine" x1="0" y1="0" x2="0" y2="1">
      <stop offset="0%" stop-color="#ffffff" stop-opacity="0.35"/>
      <stop offset="40%" stop-color="#ffffff" stop-opacity="0.05"/>
      <stop offset="100%" stop-color="#ffffff" stop-opacity="0"/>
    </linearGradient>
    <radialGradient id="leafGlow" cx="50%" cy="50%" r="55%">
      <stop offset="0%" stop-color="#bff0c6" stop-opacity="0.5"/>
      <stop offset="100%" stop-color="#bff0c6" stop-opacity="0"/>
    </radialGradient>
  </defs>
  <!-- soft rim -->
  <path d="M20 110 C60 26 250 8 322 60 C280 150 120 208 30 150 C22 138 20 124 20 110 Z" fill="url(#leafGlow)"/>
  <!-- blade -->
  <path d="M26 112 C66 34 244 20 318 62 C276 146 122 198 40 148 C30 136 26 124 26 112 Z" fill="url(#leafBody)" stroke="#17542a" stroke-width="2.5"/>
  <path d="M26 112 C66 34 244 20 318 62 C286 96 150 118 40 122 C30 118 26 116 26 112 Z" fill="url(#leafShine)"/>
  <!-- midrib -->
  <path d="M34 118 C120 96 240 70 314 62" fill="none" stroke="#15522a" stroke-width="4" stroke-linecap="round"/>
  <path d="M34 118 C120 96 240 70 314 62" fill="none" stroke="#8fe0a0" stroke-width="1" stroke-linecap="round" opacity="0.5"/>
  <!-- veins -->
  <g fill="none" stroke="#2a7a42" stroke-width="1.6" stroke-linecap="round" opacity="0.9">
    <path d="M96 106 C112 84 128 70 150 58"/>
    <path d="M96 106 C110 124 126 140 150 150"/>
    <path d="M150 96 C168 76 190 62 214 52"/>
    <path d="M150 96 C166 116 188 130 214 140"/>
    <path d="M206 84 C224 66 248 56 270 50"/>
    <path d="M206 84 C222 104 246 114 268 122"/>
    <path d="M64 114 C78 100 92 90 104 82"/>
    <path d="M64 114 C78 128 92 138 104 146"/>
  </g>
</svg>
