<svg xmlns="http://www.w3.org/2000/svg" width="220" height="220" viewBox="0 0 220 220">
  <defs>
    <radialGradient id="sunCore" cx="42%" cy="38%" r="65%">
      <stop offset="0%" stop-color="#fff4c4"/>
      <stop offset="45%" stop-color="#f6e08a"/>
      <stop offset="100%" stop-color="#e8a13c"/>
    </radialGradient>
    <radialGradient id="sunHalo" cx="50%" cy="50%" r="50%">
      <stop offset="55%" stop-color="#e8c14a" stop-opacity="0.35"/>
      <stop offset="100%" stop-color="#e8c14a" stop-opacity="0"/>
    </radialGradient>
  </defs>
  <circle cx="110" cy="110" r="108" fill="url(#sunHalo)"/>
  <g stroke="#f0d05a" stroke-width="7" stroke-linecap="round">
    <g>
      <line x1="110" y1="16" x2="110" y2="40"/>
      <line x1="110" y1="180" x2="110" y2="204"/>
      <line x1="16" y1="110" x2="40" y2="110"/>
      <line x1="180" y1="110" x2="204" y2="110"/>
    </g>
    <g transform="rotate(45 110 110)">
      <line x1="110" y1="22" x2="110" y2="44"/>
      <line x1="110" y1="176" x2="110" y2="198"/>
      <line x1="22" y1="110" x2="44" y2="110"/>
      <line x1="176" y1="110" x2="198" y2="110"/>
    </g>
    <g transform="rotate(22.5 110 110)" stroke-width="5">
      <line x1="110" y1="26" x2="110" y2="42"/>
      <line x1="110" y1="178" x2="110" y2="194"/>
      <line x1="26" y1="110" x2="42" y2="110"/>
      <line x1="178" y1="110" x2="194" y2="110"/>
    </g>
    <g transform="rotate(67.5 110 110)" stroke-width="5">
      <line x1="110" y1="26" x2="110" y2="42"/>
      <line x1="110" y1="178" x2="110" y2="194"/>
      <line x1="26" y1="110" x2="42" y2="110"/>
      <line x1="178" y1="110" x2="194" y2="110"/>
    </g>
  </g>
  <circle cx="110" cy="110" r="62" fill="url(#sunCore)" stroke="#f6e8a0" stroke-width="2"/>
</svg>
