<svg xmlns="http://www.w3.org/2000/svg" width="240" height="240" viewBox="0 0 240 240">
  <defs>
    <radialGradient id="sunHalo" cx="50%" cy="50%" r="50%">
      <stop offset="42%" stop-color="#ffe08a" stop-opacity="0.55"/>
      <stop offset="70%" stop-color="#f6b93b" stop-opacity="0.22"/>
      <stop offset="100%" stop-color="#f6b93b" stop-opacity="0"/>
    </radialGradient>
    <radialGradient id="sunCore" cx="40%" cy="35%" r="72%">
      <stop offset="0%" stop-color="#fffdf5"/>
      <stop offset="28%" stop-color="#fff0b8"/>
      <stop offset="62%" stop-color="#f9d356"/>
      <stop offset="100%" stop-color="#ef9f24"/>
    </radialGradient>
    <linearGradient id="rayGrad" x1="0" y1="0" x2="0" y2="1">
      <stop offset="0%" stop-color="#ffd85e"/>
      <stop offset="100%" stop-color="#f4a72e"/>
    </linearGradient>
    <path id="ray" d="M120 20 L128 62 L112 62 Z" fill="url(#rayGrad)"/>
    <path id="rayShort" d="M120 40 L126 66 L114 66 Z" fill="url(#rayGrad)" opacity="0.8"/>
  </defs>
  <circle cx="120" cy="120" r="120" fill="url(#sunHalo)"/>
  <g>
    <use href="#ray"/><use href="#ray" transform="rotate(30 120 120)"/><use href="#ray" transform="rotate(60 120 120)"/>
    <use href="#ray" transform="rotate(90 120 120)"/><use href="#ray" transform="rotate(120 120 120)"/><use href="#ray" transform="rotate(150 120 120)"/>
    <use href="#ray" transform="rotate(180 120 120)"/><use href="#ray" transform="rotate(210 120 120)"/><use href="#ray" transform="rotate(240 120 120)"/>
    <use href="#ray" transform="rotate(270 120 120)"/><use href="#ray" transform="rotate(300 120 120)"/><use href="#ray" transform="rotate(330 120 120)"/>
  </g>
  <g>
    <use href="#rayShort" transform="rotate(15 120 120)"/><use href="#rayShort" transform="rotate(45 120 120)"/><use href="#rayShort" transform="rotate(75 120 120)"/>
    <use href="#rayShort" transform="rotate(105 120 120)"/><use href="#rayShort" transform="rotate(135 120 120)"/><use href="#rayShort" transform="rotate(165 120 120)"/>
    <use href="#rayShort" transform="rotate(195 120 120)"/><use href="#rayShort" transform="rotate(225 120 120)"/><use href="#rayShort" transform="rotate(255 120 120)"/>
    <use href="#rayShort" transform="rotate(285 120 120)"/><use href="#rayShort" transform="rotate(315 120 120)"/><use href="#rayShort" transform="rotate(345 120 120)"/>
  </g>
  <circle cx="120" cy="120" r="60" fill="url(#sunCore)"/>
  <ellipse cx="102" cy="100" rx="26" ry="18" fill="#fffdf2" opacity="0.45"/>
</svg>
