<svg xmlns="http://www.w3.org/2000/svg" width="920" height="430" viewBox="0 0 920 430">
  <defs>
    <linearGradient id="stromaBand" x1="0" y1="0" x2="0" y2="1">
      <stop offset="0%" stop-color="#2c6b45"/><stop offset="100%" stop-color="#245638"/>
    </linearGradient>
    <linearGradient id="memBand" x1="0" y1="0" x2="0" y2="1">
      <stop offset="0%" stop-color="#3a7d54"/><stop offset="100%" stop-color="#2e6845"/>
    </linearGradient>
    <linearGradient id="lumenBand" x1="0" y1="0" x2="0" y2="1">
      <stop offset="0%" stop-color="#174257"/><stop offset="100%" stop-color="#123244"/>
    </linearGradient>
    <linearGradient id="psComplex" x1="0" y1="0" x2="0" y2="1">
      <stop offset="0%" stop-color="#57b06e"/><stop offset="100%" stop-color="#2c7a40"/>
    </linearGradient>
    <linearGradient id="atpComplex" x1="0" y1="0" x2="0" y2="1">
      <stop offset="0%" stop-color="#f0cf6a"/><stop offset="100%" stop-color="#c8972f"/>
    </linearGradient>
  </defs>
  <rect x="0" y="0" width="920" height="150" fill="url(#stromaBand)"/>
  <rect x="0" y="150" width="920" height="100" fill="url(#memBand)"/>
  <rect x="0" y="250" width="920" height="180" fill="url(#lumenBand)"/>
  <g fill="#8fd0a0" opacity="0.4">
    <circle cx="30" cy="160" r="3"/><circle cx="70" cy="160" r="3"/><circle cx="300" cy="160" r="3"/><circle cx="470" cy="160" r="3"/><circle cx="660" cy="160" r="3"/><circle cx="860" cy="160" r="3"/>
    <circle cx="30" cy="240" r="3"/><circle cx="120" cy="240" r="3"/><circle cx="470" cy="240" r="3"/><circle cx="880" cy="240" r="3"/>
  </g>
  <g stroke="rgba(0,0,0,0.22)" stroke-width="1.5">
    <rect x="175" y="144" width="70" height="112" rx="12" fill="url(#psComplex)"/>
    <rect x="372" y="148" width="56" height="104" rx="10" fill="#4a8a70"/>
    <rect x="535" y="144" width="70" height="112" rx="12" fill="url(#psComplex)"/>
    <rect x="730" y="140" width="60" height="120" rx="12" fill="url(#atpComplex)"/>
  </g>
  <circle cx="760" cy="136" r="16" fill="url(#atpComplex)" stroke="rgba(0,0,0,0.2)" stroke-width="1.5"/>
</svg>
