<svg xmlns="http://www.w3.org/2000/svg" width="900" height="260" viewBox="0 0 900 260">
  <defs>
    <linearGradient id="stromaBand" x1="0" y1="0" x2="0" y2="1">
      <stop offset="0%" stop-color="#2c6b45"/>
      <stop offset="100%" stop-color="#245a3a"/>
    </linearGradient>
    <linearGradient id="lumenBand" x1="0" y1="0" x2="0" y2="1">
      <stop offset="0%" stop-color="#164055"/>
      <stop offset="100%" stop-color="#123647"/>
    </linearGradient>
    <linearGradient id="memBand" x1="0" y1="0" x2="0" y2="1">
      <stop offset="0%" stop-color="#3a7d54"/>
      <stop offset="100%" stop-color="#2e6845"/>
    </linearGradient>
    <linearGradient id="psComplex" x1="0" y1="0" x2="0" y2="1">
      <stop offset="0%" stop-color="#57b06e"/>
      <stop offset="100%" stop-color="#2c7a40"/>
    </linearGradient>
    <linearGradient id="atpComplex" x1="0" y1="0" x2="0" y2="1">
      <stop offset="0%" stop-color="#f0cf6a"/>
      <stop offset="100%" stop-color="#c8972f"/>
    </linearGradient>
  </defs>
  <rect x="0" y="0" width="900" height="96" fill="url(#stromaBand)"/>
  <rect x="0" y="96" width="900" height="72" fill="url(#memBand)"/>
  <rect x="0" y="168" width="900" height="92" fill="url(#lumenBand)"/>
  <!-- lipid bilayer dots -->
  <g fill="#8fd0a0" opacity="0.5">
    <g>
      <circle cx="20" cy="104" r="3"/><circle cx="50" cy="104" r="3"/><circle cx="80" cy="104" r="3"/><circle cx="620" cy="104" r="3"/><circle cx="660" cy="104" r="3"/><circle cx="820" cy="104" r="3"/><circle cx="860" cy="104" r="3"/>
    </g>
  </g>
  <!-- complexes: PSII, ETC, PSI, ATP synthase -->
  <g stroke="rgba(0,0,0,0.25)" stroke-width="1.5">
    <rect x="150" y="86" width="90" height="92" rx="12" fill="url(#psComplex)"/>
    <rect x="360" y="90" width="70" height="84" rx="10" fill="#4a8a70"/>
    <rect x="520" y="86" width="90" height="92" rx="12" fill="url(#psComplex)"/>
    <rect x="720" y="82" width="78" height="100" rx="12" fill="url(#atpComplex)"/>
  </g>
  <!-- ATP synthase rotor head in stroma -->
  <circle cx="759" cy="78" r="18" fill="url(#atpComplex)" stroke="rgba(0,0,0,0.2)" stroke-width="1.5"/>
</svg>
